# xmcd
#
# Track frame offsets: 
#        150
#        14939
#        34022
#        54912
#        78358
#        90402
#        104391
#        122456
#        137272
#        159275
#
# Disc length: 2250 seconds
#
# Revision: 1
# Processed by: cddbd v1.5.2PL0 Copyright (c) Steve Scherf et al.
# Submitted via: ExactAudioCopyFreeDBPlugin 1.0
#
DISCID=6c08c80a
DTITLE=Ray Brown - Jazz Cello
DYEAR=1960
DGENRE=Jazz
TTITLE0=Tangerine
TTITLE1=Almost Like Being In Love
TTITLE2=That Old Feeling
TTITLE3=Ain't Misbehavin'
TTITLE4=Alice Blue Gown
TTITLE5=Rosalie
TTITLE6=But Beautiful
TTITLE7=Poor Butterfly
TTITLE8=Memories Of You
TTITLE9=Rock A Bye Your Baby
EXTD=YEAR: 1960
EXTT0=
EXTT1=
EXTT2=
EXTT3=
EXTT4=
EXTT5=
EXTT6=
EXTT7=
EXTT8=
EXTT9=
PLAYORDER=
